<?xml version="1.0" encoding="UTF-8" standalone="no"?>
<svg
   xmlns:dc="http://purl.org/dc/elements/1.1/"
   xmlns:cc="http://creativecommons.org/ns#"
   xmlns:rdf="http://www.w3.org/1999/02/22-rdf-syntax-ns#"
   xmlns:svg="http://www.w3.org/2000/svg"
   xmlns="http://www.w3.org/2000/svg"
   xmlns:sodipodi="http://sodipodi.sourceforge.net/DTD/sodipodi-0.dtd"
   xmlns:inkscape="http://www.inkscape.org/namespaces/inkscape"
   width="256px"
   height="264px"
   viewBox="0 0 256 264"
   version="1.1"
   preserveAspectRatio="xMidYMid"
   id="svg6"
   sodipodi:docname="laravel.svg"
   inkscape:version="0.92.4 (unknown)">
  <metadata
     id="metadata12">
    <rdf:RDF>
      <cc:Work
         rdf:about="">
        <dc:format>image/svg+xml</dc:format>
        <dc:type
           rdf:resource="http://purl.org/dc/dcmitype/StillImage" />
      </cc:Work>
    </rdf:RDF>
  </metadata>
  <defs
     id="defs10" />
  <sodipodi:namedview
     pagecolor="#ffffff"
     bordercolor="#666666"
     borderopacity="1"
     objecttolerance="10"
     gridtolerance="10"
     guidetolerance="10"
     inkscape:pageopacity="0"
     inkscape:pageshadow="2"
     inkscape:window-width="1366"
     inkscape:window-height="705"
     id="namedview8"
     showgrid="false"
     inkscape:zoom="0.89393939"
     inkscape:cx="3.8305085"
     inkscape:cy="132"
     inkscape:window-x="0"
     inkscape:window-y="27"
     inkscape:window-maximized="1"
     inkscape:current-layer="svg6" />
  <g
     id="g847"
     transform="translate(-2e-6,-2.4625e-5)">
    <path
       d="m 224.56893,76.693777 c 0.0717,0.269319 0.10904,0.547003 0.10904,0.825978 v 43.361825 c 0,1.13284 -0.59713,2.17913 -1.56542,2.74271 l -35.86044,20.95375 v 41.53202 c 0,1.13028 -0.59191,2.17363 -1.55764,2.74272 l -74.85562,43.73331 c -0.17134,0.0988 -0.35825,0.16204 -0.54516,0.22922 -0.0701,0.0237 -0.1363,0.0671 -0.21028,0.087 -0.52327,0.13985 -1.0733,0.13985 -1.59657,0 -0.0857,-0.0237 -0.16356,-0.0711 -0.24533,-0.10275 -0.17134,-0.0632 -0.35047,-0.11856 -0.51402,-0.21342 L 32.887448,188.85278 c -0.967694,-0.56419 -1.565414,-1.6101 -1.565414,-2.74272 V 56.024588 c 0,-0.284547 0.03894,-0.56119 0.109034,-0.829929 0.02336,-0.0909 0.07788,-0.17389 0.109034,-0.264787 0.05841,-0.165986 0.112928,-0.335923 0.198597,-0.490054 0.05841,-0.102752 0.14408,-0.185746 0.214174,-0.280595 0.08956,-0.126464 0.171338,-0.256882 0.276478,-0.36754 0.08956,-0.0909 0.206386,-0.158081 0.307631,-0.237123 0.112928,-0.09485 0.214174,-0.197601 0.342678,-0.27269 h 0.0039 L 70.305524,31.415212 c 0.964291,-0.563147 2.150962,-0.563147 3.115253,0 L 110.84275,53.28187 h 0.008 c 0.12461,0.07904 0.22975,0.177842 0.34268,0.268739 0.10124,0.07904 0.21417,0.150178 0.30373,0.237122 0.10904,0.11461 0.18692,0.245028 0.28038,0.371492 0.0662,0.09485 0.15576,0.177843 0.21027,0.280595 0.0896,0.158082 0.14019,0.324068 0.2025,0.490054 0.0312,0.0909 0.0857,0.17389 0.10903,0.268739 0.0717,0.269319 0.10836,0.547003 0.10904,0.825977 v 81.250062 l 31.18367,-18.22286 V 77.515802 c 0,-0.276642 0.039,-0.557238 0.10903,-0.822025 0.0273,-0.09485 0.0779,-0.177841 0.10904,-0.268739 0.0623,-0.165985 0.11682,-0.335924 0.20249,-0.490053 0.0584,-0.102754 0.14408,-0.185746 0.21028,-0.280595 0.0935,-0.126466 0.17134,-0.256883 0.28037,-0.36754 0.0896,-0.0909 0.2025,-0.158082 0.30374,-0.237123 0.11682,-0.09485 0.21807,-0.197602 0.34268,-0.272691 h 0.004 l 37.42586,-21.866658 c 0.96408,-0.563958 2.15118,-0.563958 3.11525,0 l 37.42197,21.866658 c 0.13241,0.07904 0.23365,0.177842 0.35047,0.268739 0.0974,0.07904 0.21028,0.150177 0.29985,0.237122 0.10903,0.11461 0.18691,0.245027 0.28037,0.371493 0.0701,0.09485 0.15576,0.177841 0.21028,0.280595 0.0896,0.154129 0.14018,0.324068 0.20249,0.490053 0.035,0.0909 0.0857,0.17389 0.10903,0.268739 z m -6.12926,42.358013 V 82.993335 l -13.09574,7.651157 -18.09182,10.571718 v 36.05844 l 31.19146,-18.22286 z m -37.42196,65.22848 v -36.08216 l -17.79589,10.31483 -50.81755,29.43482 V 224.3698 Z M 37.560327,61.498169 V 184.28027 l 68.605643,40.08557 v -36.41413 l -35.840975,-20.58619 -0.01168,-0.008 -0.01557,-0.008 c -0.120716,-0.0711 -0.221962,-0.17389 -0.334889,-0.26084 -0.09735,-0.079 -0.21028,-0.14227 -0.295949,-0.22922 l -0.0078,-0.0119 c -0.101246,-0.0988 -0.171339,-0.22132 -0.257008,-0.33198 -0.07788,-0.1067 -0.171339,-0.1976 -0.233644,-0.30825 l -0.0039,-0.0119 c -0.07009,-0.11856 -0.112928,-0.26083 -0.163551,-0.3952 -0.05062,-0.11856 -0.116822,-0.22922 -0.147974,-0.35568 v -0.004 c -0.03894,-0.15018 -0.04673,-0.30826 -0.0623,-0.46239 -0.01557,-0.11856 -0.04673,-0.23712 -0.04673,-0.35568 v -0.008 -84.893857 L 50.65607,69.145373 37.560327,61.502121 Z M 71.867045,37.809618 40.687262,56.024588 71.859257,74.239558 103.03515,56.020636 71.859257,37.809618 Z M 88.081934,151.48621 106.16987,140.91844 V 61.498169 L 93.074126,69.149326 74.982297,79.721043 v 79.420277 z m 96.054916,-92.181425 -31.17589,18.21497 31.17589,18.214969 31.17199,-18.218922 z m -3.11914,41.911425 -18.09184,-10.571718 -13.09574,-7.651157 v 36.058455 l 18.08794,10.56776 13.09964,7.6551 z m -71.73648,81.25797 45.72801,-26.4945 22.85816,-13.23934 -31.15252,-18.20312 -35.86824,20.95769 -32.690679,19.10022 z"
       id="path2"
       inkscape:connector-curvature="0"
       style="fill:#ff2d20;stroke-width:0.76089859" />
  </g>
</svg>
